<?xml version="1.0" encoding="utf-8"?>
<!-- Generator: Adobe Illustrator 16.0.0, SVG Export Plug-In . SVG Version: 6.00 Build 0)  -->
<!DOCTYPE svg PUBLIC "-//W3C//DTD SVG 1.1//EN" "http://www.w3.org/Graphics/SVG/1.1/DTD/svg11.dtd">
<svg version="1.1" id="Outline_Version" xmlns="http://www.w3.org/2000/svg" xmlns:xlink="http://www.w3.org/1999/xlink" x="0px"
	 y="0px" width="24px" height="24px" viewBox="0 0 24 24" enable-background="new 0 0 24 24" xml:space="preserve">
<g>
	<path d="M23.513,23h-0.5V8.5c0-0.276-0.224-0.5-0.5-0.5h-3c-0.276,0-0.5,0.224-0.5,0.5V23h-2V12.5c0-0.276-0.224-0.5-0.5-0.5h-3
		c-0.276,0-0.5,0.224-0.5,0.5V23h-2v-6.5c0-0.276-0.224-0.5-0.5-0.5h-3c-0.276,0-0.5,0.224-0.5,0.5V23h-2v-2.5
		c0-0.276-0.224-0.5-0.5-0.5h-3c-0.276,0-0.5,0.224-0.5,0.5V23h-0.5c-0.276,0-0.5,0.224-0.5,0.5s0.224,0.5,0.5,0.5h1h3h3h3h3h3h3h3
		h1c0.276,0,0.5-0.224,0.5-0.5S23.789,23,23.513,23z M2.013,23v-2h2v2H2.013z M8.013,23v-6h2v6H8.013z M14.013,23V13h2v10H14.013z
		 M20.013,23V9h2v14H20.013z" fill="#5e7388"/>
	<path d="M3.013,13.971c0.096,0,0.192-0.027,0.277-0.084L20.382,2.493l-0.365,2.946c-0.034,0.274,0.16,0.524,0.435,0.558
		C20.472,5.999,20.493,6,20.514,6c0.248,0,0.464-0.185,0.495-0.438l0.5-4.029c0.003-0.024-0.005-0.047-0.005-0.072
		c-0.001-0.035,0-0.068-0.008-0.103c-0.008-0.033-0.023-0.062-0.038-0.093c-0.011-0.023-0.015-0.049-0.029-0.071
		c-0.004-0.005-0.01-0.008-0.014-0.013c-0.004-0.006-0.005-0.013-0.009-0.018c-0.019-0.023-0.044-0.037-0.066-0.056
		c-0.022-0.021-0.043-0.044-0.068-0.06c-0.027-0.017-0.058-0.024-0.088-0.036C21.152,1,21.123,0.986,21.09,0.98
		c-0.007-0.001-0.012-0.005-0.019-0.006l-4-0.471c-0.272-0.032-0.523,0.164-0.555,0.438c-0.033,0.274,0.163,0.523,0.438,0.555
		l2.651,0.312L2.735,13.055c-0.229,0.153-0.292,0.463-0.139,0.693C2.693,13.893,2.852,13.971,3.013,13.971z" fill="#5e7388"/>
</g>
</svg>
