<?xml version="1.0" encoding="utf-8"?>
<!-- Generator: Adobe Illustrator 16.0.0, SVG Export Plug-In . SVG Version: 6.00 Build 0)  -->
<!DOCTYPE svg PUBLIC "-//W3C//DTD SVG 1.1//EN" "http://www.w3.org/Graphics/SVG/1.1/DTD/svg11.dtd">
<svg version="1.1" id="Outline_Version" xmlns="http://www.w3.org/2000/svg" xmlns:xlink="http://www.w3.org/1999/xlink" x="0px"
	 y="0px" width="24px" height="24px" viewBox="0 0 24 24" enable-background="new 0 0 24 24" xml:space="preserve">
<g>
	<path d="M10,12c-5.304,0-9-1.845-9-3.5V6.482C2.603,7.984,5.984,9,10,9s7.397-1.016,9-2.518V9c0,0.276,0.224,0.5,0.5,0.5
		S20,9.276,20,9V4.5C20,1.977,15.607,0,10,0S0,1.977,0,4.5v13c0,2.366,3.775,4.249,8.979,4.477c0.007,0,0.015,0,0.021,0
		c0.267,0,0.487-0.209,0.5-0.478c0.012-0.276-0.202-0.509-0.479-0.521C4.067,20.76,1,19.003,1,17.5v-2.488
		c1.375,1.287,4.07,2.209,7.467,2.436c0.012,0,0.022,0.001,0.034,0.001c0.261,0,0.48-0.203,0.498-0.467
		c0.019-0.275-0.19-0.514-0.466-0.532C4.309,16.168,1,14.653,1,13v-2.518C2.603,11.984,5.984,13,10,13c0.276,0,0.5-0.224,0.5-0.5
		S10.276,12,10,12z M10,1c5.304,0,9,1.845,9,3.5S15.304,8,10,8S1,6.155,1,4.5S4.696,1,10,1z" fill="#f5e139"/>
	<path d="M23.5,15H22v-0.5c0-1.93-1.57-3.5-3.5-3.5S15,12.57,15,14.5V15h-1.5c-0.276,0-0.5,0.224-0.5,0.5v8
		c0,0.276,0.224,0.5,0.5,0.5h10c0.276,0,0.5-0.224,0.5-0.5v-8C24,15.224,23.776,15,23.5,15z M16,14.5c0-1.378,1.121-2.5,2.5-2.5
		s2.5,1.122,2.5,2.5V15h-5V14.5z M23,23h-9v-7h9V23z" fill="#f5e139"/>
	<path d="M18.5,17.5c-0.552,0-1,0.449-1,1c0,0.365,0.207,0.672,0.5,0.846V21c0,0.276,0.224,0.5,0.5,0.5S19,21.276,19,21v-1.654
		c0.293-0.174,0.5-0.481,0.5-0.846C19.5,17.949,19.052,17.5,18.5,17.5z" fill="#f5e139"/>
</g>
</svg>
