<?xml version="1.0" encoding="utf-8"?>
<!-- Generator: Adobe Illustrator 16.0.0, SVG Export Plug-In . SVG Version: 6.00 Build 0)  -->
<!DOCTYPE svg PUBLIC "-//W3C//DTD SVG 1.1//EN" "http://www.w3.org/Graphics/SVG/1.1/DTD/svg11.dtd">
<svg version="1.1" id="Outline_Version" xmlns="http://www.w3.org/2000/svg" xmlns:xlink="http://www.w3.org/1999/xlink" x="0px"
	 y="0px" width="24px" height="24px" viewBox="0 0 24 24" enable-background="new 0 0 24 24" xml:space="preserve">
<g>
	<path d="M14.013,19h-1.766c-0.063-0.084-0.131-0.181-0.212-0.298C11.377,17.758,10.15,16,8.013,16h-3v-0.5
		c0-0.276-0.224-0.5-0.5-0.5h-4c-0.276,0-0.5,0.224-0.5,0.5v8c0,0.276,0.224,0.5,0.5,0.5h4c0.276,0,0.5-0.224,0.5-0.5V23h16.5
		c0.276,0,0.5-0.224,0.5-0.5C22.013,20.438,17.797,19,14.013,19z M4.013,23h-3v-7h3V23z M5.013,22v-5h3c1.454,0,2.4,1.149,3.009,2
		H7.013c-0.276,0-0.5,0.224-0.5,0.5s0.224,0.5,0.5,0.5h7c3.36,0,6.021,1.073,6.781,2H5.013z" fill="#5e7388"/>
	<circle cx="2.513" cy="21.5" r="0.5" fill="#5e7388"/>
	<path d="M20.513,0h-16c-1.379,0-2.5,1.121-2.5,2.5V11c0,0.276,0.224,0.5,0.5,0.5s0.5-0.224,0.5-0.5V5h19v9.5
		c0,0.827-0.673,1.5-1.5,1.5h-3c-0.276,0-0.5,0.224-0.5,0.5s0.224,0.5,0.5,0.5h3c1.379,0,2.5-1.121,2.5-2.5v-12
		C23.013,1.121,21.892,0,20.513,0z M3.013,4V2.5c0-0.827,0.673-1.5,1.5-1.5h16c0.827,0,1.5,0.673,1.5,1.5V4H3.013z" fill="#5e7388"/>
	<circle cx="5.513" cy="2.5" r="0.5" fill="#5e7388"/>
	<circle cx="7.513" cy="2.5" r="0.5" fill="#5e7388"/>
	<circle cx="9.513" cy="2.5" r="0.5" fill="#5e7388"/>
</g>
</svg>
